<svg width="40" height="40" viewBox="0 0 40 40" fill="none" xmlns="http://www.w3.org/2000/svg">
<rect width="40" height="40" rx="8" fill="#E9E6F3"/>
<path d="M15 24C15 24.55 15.45 25 16 25H24C24.55 25 25 24.55 25 24C25 23.45 24.55 23 24 23H16C15.45 23 15 23.45 15 24ZM12 29H28C28.55 29 29 28.55 29 28C29 27.45 28.55 27 28 27H12C11.45 27 11 27.45 11 28C11 28.55 11.45 29 12 29ZM12 21H28C28.55 21 29 20.55 29 20C29 19.45 28.55 19 28 19H12C11.45 19 11 19.45 11 20C11 20.55 11.45 21 12 21ZM15 16C15 16.55 15.45 17 16 17H24C24.55 17 25 16.55 25 16C25 15.45 24.55 15 24 15H16C15.45 15 15 15.45 15 16ZM11 12C11 12.55 11.45 13 12 13H28C28.55 13 29 12.55 29 12C29 11.45 28.55 11 28 11H12C11.45 11 11 11.45 11 12Z" fill="#5233A1"/>
</svg>
