<svg width="40" height="40" viewBox="0 0 40 40" fill="none" xmlns="http://www.w3.org/2000/svg">
<rect width="40" height="40" rx="8" fill="#E9E6F3"/>
<path d="M17 15H19V25H17V21H13V25H11V15H13V19H17V15ZM25 23C25.51 22.59 25.6 22.38 26.06 21.95C26.4973 21.5493 26.9073 21.1226 27.29 20.67C27.6237 20.279 27.9091 19.8492 28.14 19.39C28.339 19 28.445 18.568 28.45 18.13C28.4553 17.6886 28.3631 17.2516 28.18 16.85C28.0028 16.4651 27.7433 16.1238 27.42 15.85C27.0738 15.5672 26.6767 15.3533 26.25 15.22C25.7648 15.0676 25.2585 14.9934 24.75 15C24.39 15 24.0333 15.0333 23.68 15.1C23.3375 15.1616 23.0023 15.2588 22.68 15.39C22.3758 15.5204 22.0873 15.6848 21.82 15.88C21.5327 16.09 21.2593 16.3166 21 16.56L22.24 17.78C22.5487 17.5133 22.8837 17.2787 23.24 17.08C23.59 16.879 23.987 16.776 24.39 16.78C24.8452 16.7501 25.296 16.8849 25.66 17.16C25.971 17.438 26.137 17.844 26.11 18.26C26.0957 18.6563 25.971 19.0407 25.75 19.37C25.4656 19.8235 25.13 20.2429 24.75 20.62C24.31 21.05 23.77 21.54 23.16 22.05C22.55 22.56 21.75 23.11 21 23.7V25H29V23H25Z" fill="#5233A1"/>
</svg>
