<svg width="40" height="40" viewBox="0 0 40 40" fill="none" xmlns="http://www.w3.org/2000/svg">
<rect width="40" height="40" rx="8" fill="#E9E6F3"/>
<path d="M22 23H12C11.45 23 11 23.45 11 24C11 24.55 11.45 25 12 25H22C22.55 25 23 24.55 23 24C23 23.45 22.55 23 22 23ZM22 15H12C11.45 15 11 15.45 11 16C11 16.55 11.45 17 12 17H22C22.55 17 23 16.55 23 16C23 15.45 22.55 15 22 15ZM12 21H28C28.55 21 29 20.55 29 20C29 19.45 28.55 19 28 19H12C11.45 19 11 19.45 11 20C11 20.55 11.45 21 12 21ZM12 29H28C28.55 29 29 28.55 29 28C29 27.45 28.55 27 28 27H12C11.45 27 11 27.45 11 28C11 28.55 11.45 29 12 29ZM11 12C11 12.55 11.45 13 12 13H28C28.55 13 29 12.55 29 12C29 11.45 28.55 11 28 11H12C11.45 11 11 11.45 11 12Z" fill="#5233A1"/>
</svg>
