<svg width="40" height="40" viewBox="0 0 40 40" fill="none" xmlns="http://www.w3.org/2000/svg">
<rect width="40" height="40" rx="8" fill="#E9E6F3"/>
<path d="M11.75 30C11.5333 30 11.3543 29.929 11.213 29.787C11.0717 29.645 11.0007 29.466 11 29.25C10.9993 29.034 11.0703 28.855 11.213 28.713C11.3557 28.571 11.5347 28.5 11.75 28.5H13.5V27.75H12.75C12.5333 27.75 12.3543 27.679 12.213 27.537C12.0717 27.395 12.0007 27.216 12 27C11.9993 26.784 12.0703 26.605 12.213 26.463C12.3557 26.321 12.5347 26.25 12.75 26.25H13.5V25.5H11.75C11.5333 25.5 11.3543 25.429 11.213 25.287C11.0717 25.145 11.0007 24.966 11 24.75C10.9993 24.534 11.0703 24.355 11.213 24.213C11.3557 24.071 11.5347 24 11.75 24H14C14.2833 24 14.521 24.096 14.713 24.288C14.905 24.48 15.0007 24.7173 15 25V26C15 26.2833 14.904 26.521 14.712 26.713C14.52 26.905 14.2827 27.0007 14 27C14.2833 27 14.521 27.096 14.713 27.288C14.905 27.48 15.0007 27.7173 15 28V29C15 29.2833 14.904 29.521 14.712 29.713C14.52 29.905 14.2827 30.0007 14 30H11.75ZM11.75 23C11.5333 23 11.3543 22.929 11.213 22.787C11.0717 22.645 11.0007 22.466 11 22.25V20.25C11 19.9667 11.096 19.7293 11.288 19.538C11.48 19.3467 11.7173 19.2507 12 19.25H13.5V18.5H11.75C11.5333 18.5 11.3543 18.429 11.213 18.287C11.0717 18.145 11.0007 17.966 11 17.75C10.9993 17.534 11.0703 17.355 11.213 17.213C11.3557 17.071 11.5347 17 11.75 17H14C14.2833 17 14.521 17.096 14.713 17.288C14.905 17.48 15.0007 17.7173 15 18V19.75C15 20.0333 14.904 20.271 14.712 20.463C14.52 20.655 14.2827 20.7507 14 20.75H12.5V21.5H14.25C14.4667 21.5 14.646 21.571 14.788 21.713C14.93 21.855 15.0007 22.034 15 22.25C14.9993 22.466 14.9283 22.6453 14.787 22.788C14.6457 22.9307 14.4667 23.0013 14.25 23H11.75ZM13.25 16C13.0333 16 12.8543 15.929 12.713 15.787C12.5717 15.645 12.5007 15.466 12.5 15.25V11.5H11.75C11.5333 11.5 11.3543 11.429 11.213 11.287C11.0717 11.145 11.0007 10.966 11 10.75C10.9993 10.534 11.0703 10.355 11.213 10.213C11.3557 10.071 11.5347 10 11.75 10H13.25C13.4667 10 13.646 10.071 13.788 10.213C13.93 10.355 14.0007 10.534 14 10.75V15.25C14 15.4667 13.929 15.646 13.787 15.788C13.645 15.93 13.466 16.0007 13.25 16ZM18 27C17.7167 27 17.4793 26.904 17.288 26.712C17.0967 26.52 17.0007 26.2827 17 26C16.9993 25.7173 17.0953 25.48 17.288 25.288C17.4807 25.096 17.718 25 18 25H28C28.2833 25 28.521 25.096 28.713 25.288C28.905 25.48 29.0007 25.7173 29 26C28.9993 26.2827 28.9033 26.5203 28.712 26.713C28.5207 26.9057 28.2833 27.0013 28 27H18ZM18 21C17.7167 21 17.4793 20.904 17.288 20.712C17.0967 20.52 17.0007 20.2827 17 20C16.9993 19.7173 17.0953 19.48 17.288 19.288C17.4807 19.096 17.718 19 18 19H28C28.2833 19 28.521 19.096 28.713 19.288C28.905 19.48 29.0007 19.7173 29 20C28.9993 20.2827 28.9033 20.5203 28.712 20.713C28.5207 20.9057 28.2833 21.0013 28 21H18ZM18 15C17.7167 15 17.4793 14.904 17.288 14.712C17.0967 14.52 17.0007 14.2827 17 14C16.9993 13.7173 17.0953 13.48 17.288 13.288C17.4807 13.096 17.718 13 18 13H28C28.2833 13 28.521 13.096 28.713 13.288C28.905 13.48 29.0007 13.7173 29 14C28.9993 14.2827 28.9033 14.5203 28.712 14.713C28.5207 14.9057 28.2833 15.0013 28 15H18Z" fill="#5233A1"/>
</svg>
