<svg width="40" height="40" viewBox="0 0 40 40" fill="none" xmlns="http://www.w3.org/2000/svg">
<rect width="40" height="40" rx="8" fill="#E9E6F3"/>
<path d="M12.6028 22.8133C12.5978 22.8204 12.5928 22.8276 12.5878 22.8349L11.7017 22.3918C13.775 19.0596 17.6034 17.2573 21.5164 17.8929C23.1462 18.181 24.5658 18.7518 25.8911 19.7932L26.2461 20.0721L26.5597 19.7473L28.5 17.7377V23H23.2071L25.0536 21.1536L25.4666 20.7405L24.9947 20.3961C21.0657 17.5289 15.6494 18.487 12.8909 22.4125L12.8839 22.4226C12.825 22.511 12.7823 22.5681 12.7352 22.6312C12.6975 22.6817 12.6569 22.736 12.6028 22.8133Z" fill="#5233A1" stroke="#5233A1"/>
</svg>
