<svg width="40" height="40" viewBox="0 0 40 40" fill="none" xmlns="http://www.w3.org/2000/svg">
<rect width="40" height="40" rx="8" fill="#E9E6F3"/>
<path d="M18 27C17.7167 27 17.4793 26.904 17.288 26.712C17.0967 26.52 17.0007 26.2827 17 26C16.9993 25.7173 17.0953 25.48 17.288 25.288C17.4807 25.096 17.718 25 18 25H28C28.2833 25 28.521 25.096 28.713 25.288C28.905 25.48 29.0007 25.7173 29 26C28.9993 26.2827 28.9033 26.5203 28.712 26.713C28.5207 26.9057 28.2833 27.0013 28 27H18ZM18 21C17.7167 21 17.4793 20.904 17.288 20.712C17.0967 20.52 17.0007 20.2827 17 20C16.9993 19.7173 17.0953 19.48 17.288 19.288C17.4807 19.096 17.718 19 18 19H28C28.2833 19 28.521 19.096 28.713 19.288C28.905 19.48 29.0007 19.7173 29 20C28.9993 20.2827 28.9033 20.5203 28.712 20.713C28.5207 20.9057 28.2833 21.0013 28 21H18ZM18 15C17.7167 15 17.4793 14.904 17.288 14.712C17.0967 14.52 17.0007 14.2827 17 14C16.9993 13.7173 17.0953 13.48 17.288 13.288C17.4807 13.096 17.718 13 18 13H28C28.2833 13 28.521 13.096 28.713 13.288C28.905 13.48 29.0007 13.7173 29 14C28.9993 14.2827 28.9033 14.5203 28.712 14.713C28.5207 14.9057 28.2833 15.0013 28 15H18ZM13 28C12.45 28 11.9793 27.8043 11.588 27.413C11.1967 27.0217 11.0007 26.5507 11 26C10.9993 25.4493 11.1953 24.9787 11.588 24.588C11.9807 24.1973 12.4513 24.0013 13 24C13.5487 23.9987 14.0197 24.1947 14.413 24.588C14.8063 24.9813 15.002 25.452 15 26C14.998 26.548 14.8023 27.019 14.413 27.413C14.0237 27.807 13.5527 28.0027 13 28ZM13 22C12.45 22 11.9793 21.8043 11.588 21.413C11.1967 21.0217 11.0007 20.5507 11 20C10.9993 19.4493 11.1953 18.9787 11.588 18.588C11.9807 18.1973 12.4513 18.0013 13 18C13.5487 17.9987 14.0197 18.1947 14.413 18.588C14.8063 18.9813 15.002 19.452 15 20C14.998 20.548 14.8023 21.019 14.413 21.413C14.0237 21.807 13.5527 22.0027 13 22ZM13 16C12.45 16 11.9793 15.8043 11.588 15.413C11.1967 15.0217 11.0007 14.5507 11 14C10.9993 13.4493 11.1953 12.9787 11.588 12.588C11.9807 12.1973 12.4513 12.0013 13 12C13.5487 11.9987 14.0197 12.1947 14.413 12.588C14.8063 12.9813 15.002 13.452 15 14C14.998 14.548 14.8023 15.019 14.413 15.413C14.0237 15.807 13.5527 16.0027 13 16Z" fill="#5233A1"/>
</svg>
