<svg width="24" height="25" viewBox="0 0 24 25" fill="none" xmlns="http://www.w3.org/2000/svg">
<path d="M3 9.85156V15.6216C3 17.7416 3 17.7416 5 19.0916L10.5 22.2716C11.33 22.7516 12.68 22.7516 13.5 22.2716L19 19.0916C21 17.7416 21 17.7416 21 15.6316V9.85156C21 7.74156 21 7.74156 19 6.39156L13.5 3.21156C12.68 2.73156 11.33 2.73156 10.5 3.21156L5 6.39156C3 7.74156 3 7.74156 3 9.85156Z" stroke="#3B1437" stroke-width="1.5" stroke-linecap="round" stroke-linejoin="round"/>
<path d="M12 15.7422C13.6569 15.7422 15 14.399 15 12.7422C15 11.0853 13.6569 9.74219 12 9.74219C10.3431 9.74219 9 11.0853 9 12.7422C9 14.399 10.3431 15.7422 12 15.7422Z" stroke="#3B1437" stroke-width="1.5" stroke-linecap="round" stroke-linejoin="round"/>
</svg>
