<svg width="24" height="25" viewBox="0 0 24 25" fill="none" xmlns="http://www.w3.org/2000/svg">
<path d="M3 22.7422H21" stroke="#3B1437" stroke-width="1.5" stroke-linecap="round" stroke-linejoin="round"/>
<path d="M5.59998 9.12109H4C3.45 9.12109 3 9.57109 3 10.1211V18.7411C3 19.2911 3.45 19.7411 4 19.7411H5.59998C6.14998 19.7411 6.59998 19.2911 6.59998 18.7411V10.1211C6.59998 9.57109 6.14998 9.12109 5.59998 9.12109Z" stroke="#3B1437" stroke-width="1.5" stroke-linecap="round" stroke-linejoin="round"/>
<path d="M12.7992 5.93359H11.1992C10.6492 5.93359 10.1992 6.38359 10.1992 6.93359V18.7436C10.1992 19.2936 10.6492 19.7436 11.1992 19.7436H12.7992C13.3492 19.7436 13.7992 19.2936 13.7992 18.7436V6.93359C13.7992 6.38359 13.3492 5.93359 12.7992 5.93359Z" stroke="#3B1437" stroke-width="1.5" stroke-linecap="round" stroke-linejoin="round"/>
<path d="M19.9984 2.74219H18.3984C17.8484 2.74219 17.3984 3.19219 17.3984 3.74219V18.7422C17.3984 19.2922 17.8484 19.7422 18.3984 19.7422H19.9984C20.5484 19.7422 20.9984 19.2922 20.9984 18.7422V3.74219C20.9984 3.19219 20.5484 2.74219 19.9984 2.74219Z" stroke="#3B1437" stroke-width="1.5" stroke-linecap="round" stroke-linejoin="round"/>
</svg>
